# xmcd CD database file
#
# Track frame offsets:
#	150
#	24206
#	46471
#	65229
#	77424
#	93937
#	124378
#	149588
#	167850
#	184733
#	203812
#	231590
#
# Disc length: 3431 seconds
#
# Revision: 22
# Processed by: cddbd v1.5.1PL2 Copyright (c) Steve Scherf et al.
# Submitted via: CDex 1.50
#
DISCID=ac0d650c
DTITLE=HY - Street Story
DYEAR=2003
DGENRE=JPop
TTITLE0=AM11:00
TTITLE1=koufukugan
TTITLE2=to-tan
TTITLE3=otokomae
TTITLE4=konntoro-ru
TTITLE5=kanabunnnohane
TTITLE6=anata
TTITLE7=33nanba-
TTITLE8=DREAMING
TTITLE9=(kumonoma-ku)
TTITLE10=saaikou
TTITLE11=Street Story
EXTD=YEAR: 2003
EXTT0=
EXTT1=
EXTT2=
EXTT3=
EXTT4=
EXTT5=
EXTT6=
EXTT7=
EXTT8=
EXTT9=
EXTT10=
EXTT11=
PLAYORDER=
